<svg xmlns="http://www.w3.org/2000/svg" viewBox="0 0 640 512"><!--! Font Awesome Pro 6.0.0 by @fontawesome - https://fontawesome.com License - https://fontawesome.com/license (Commercial License) Copyright 2022 Fonticons, Inc. --><path fill="rgb(255, 255, 255)" d="M 96.2 199.1 C 96.1 196.4 96 193.7 96 191 C 96 102.6 167.6 31 256 31 C 315.3 31 367 63.3 394.7 111.2 C 409.9 100.1 428.3 95 448 95 C 501 95 544 137.1 544 191 C 544 203.2 541.7 214.8 537.6 225.6 C 596 237.4 640 289.1 640 351 C 640 421.7 582.7 479 512 479 H 144 C 64.5 479 0 414.5 0 335 C 0 272.2 40.2 218.8 96.2 199.1 z"/></svg>