<svg xmlns="http://www.w3.org/2000/svg" viewBox="0 0 512 512"><!--! Font Awesome Pro 6.0.0 by @fontawesome - https://fontawesome.com License - https://fontawesome.com/license (Commercial License) Copyright 2022 Fonticons, Inc.--><g fill="rgb(255, 255, 255)">
        <path d="M 160 322.9 V 304 c 0 -8.7 -7.2 -16 -16 -16 s -16 7.3 -16 16 v 18.9 C 109.4 329.5 96 347.1 96 368 c 0 26.5 21.5 48 48 48 s 48 -21.5 48 -48 c 0 -20.9 -13.4 -38.5 -32 -45.1 z M 256 112 C 256 50.1 205.9 0 144 0 S 32 50.1 32 112 v 166.5 C 12.3 303.3 0 334 0 368 c 0 79.5 64.5 144 144 144 s 144 -64.5 144 -144 c 0 -33.1 -12.3 -64.9 -32 -89.5 V 112 z M 144 448 c -44.1 0 -80 -35.9 -80 -80 c 0 -25.5 12.3 -48.9 32 -63.8 v -192.3 c 0 -26.5 21.5 -48 48 -48 s 48 21.5 48 48 v 192.1 c 19.8 14.8 32 38.4 32 63.9 c 0 44.2 -35.9 80.1 -80 80.1 z M 416 0 c -52.9 0 -96 43.1 -96 96 s 43.1 96 96 96 s 96 -43.1 96 -96 s -43.1 -96 -96 -96 z m 0 128 c -17.8 0 -32 -14.3 -32 -32 s 14.3 -32 32 -32 s 32 14.3 32 32 s -14.2 32 -32 32 z"/>
    </g></svg>