<svg xmlns="http://www.w3.org/2000/svg" viewBox="0 0 512 512"><!--! Font Awesome Pro 6.0.0 by @fontawesome - https://fontawesome.com License - https://fontawesome.com/license (Commercial License) Copyright 2022 Fonticons, Inc. --><path fill="rgb(255, 255, 255)" d="M 32 192 h 320 c 52.9 0 96 -43.1 96 -96 s -43.1 -96 -96 -96 h -32 c -17.7 0 -32 14.3 -32 32 s 14.3 32 32 32 h 32 c 17.7 0 32 14.3 32 32 s -14.3 32 -32 32 H 32 C 14.3 128 0 142.3 0 160 S 14.3 192 32 192 z M 160 320 H 32 c -17.7 0 -32 14.3 -32 32 s 14.3 32 32 32 h 128 c 17.7 0 32 14.3 32 32 s -14.3 32 -32 32 H 128 c -17.7 0 -32 14.3 -32 32 s 14.3 32 32 32 h 32 c 52.9 0 96 -43.1 96 -96 S 212.9 320 160 320 z M 416 224 H 32 C 14.3 224 0 238.3 0 256 s 14.3 32 32 32 h 384 c 17.7 0 32 14.3 32 32 s -14.3 32 -32 32 h -32 c -17.7 0 -32 14.3 -32 32 s 14.3 32 32 32 h 32 c 52.9 0 96 -43.1 96 -96 S 468.9 224 416 224 z"/></svg>